<svg width="24" height="24" viewBox="0 0 24 24" fill="none" xmlns="http://www.w3.org/2000/svg">
<path d="M18.8667 23.6L10.8 15.4667C10.3556 15.6444 9.90556 15.7778 9.45 15.8667C8.99444 15.9556 8.51111 16 8 16C5.77778 16 3.88889 15.2222 2.33333 13.6667C0.777778 12.1111 0 10.2222 0 8C0 7.2 0.111111 6.43889 0.333333 5.71667C0.555556 4.99444 0.866667 4.31111 1.26667 3.66667L6.13333 8.53333L8.53333 6.13333L3.66667 1.26667C4.31111 0.866667 4.99444 0.555556 5.71667 0.333333C6.43889 0.111111 7.2 0 8 0C10.2222 0 12.1111 0.777778 13.6667 2.33333C15.2222 3.88889 16 5.77778 16 8C16 8.51111 15.9556 8.99444 15.8667 9.45C15.7778 9.90556 15.6444 10.3556 15.4667 10.8L23.6 18.8667C23.8667 19.1333 24 19.4556 24 19.8333C24 20.2111 23.8667 20.5333 23.6 20.8L20.8 23.6C20.5333 23.8667 20.2111 24 19.8333 24C19.4556 24 19.1333 23.8667 18.8667 23.6ZM19.8333 20.7667L20.7333 19.8667L12.2 11.3333C12.6 10.8889 12.8889 10.3722 13.0667 9.78333C13.2444 9.19444 13.3333 8.6 13.3333 8C13.3333 6.66667 12.9056 5.50556 12.05 4.51667C11.1944 3.52778 10.1333 2.93333 8.86667 2.73333L11.3333 5.2C11.6 5.46667 11.7333 5.77778 11.7333 6.13333C11.7333 6.48889 11.6 6.8 11.3333 7.06667L7.06667 11.3333C6.8 11.6 6.48889 11.7333 6.13333 11.7333C5.77778 11.7333 5.46667 11.6 5.2 11.3333L2.73333 8.86667C2.93333 10.1333 3.52778 11.1944 4.51667 12.05C5.50556 12.9056 6.66667 13.3333 8 13.3333C8.57778 13.3333 9.15556 13.2444 9.73333 13.0667C10.3111 12.8889 10.8333 12.6111 11.3 12.2333L19.8333 20.7667Z" fill="white"/>
</svg>
